<mxfile host="app.diagrams.net" modified="2023-03-13T01:56:30.985Z" agent="5.0 (Windows NT 10.0; Win64; x64) AppleWebKit/537.36 (KHTML, like Gecko) Chrome/98.0.4758.82 Safari/537.36" etag="6bQ30V-ePsWodKL_bHvn" version="21.0.6" type="github">
  <diagram name="第 1 页" id="3nSiq1rD-KCfvYe2mM9b">
    <mxGraphModel dx="1434" dy="764" grid="1" gridSize="10" guides="1" tooltips="1" connect="1" arrows="1" fold="1" page="1" pageScale="1" pageWidth="827" pageHeight="1169" math="0" shadow="0">
      <root>
        <mxCell id="0" />
        <mxCell id="1" parent="0" />
        <mxCell id="MNydZ9wM69sGLFGE3Unw-15" style="edgeStyle=orthogonalEdgeStyle;rounded=0;orthogonalLoop=1;jettySize=auto;html=1;" edge="1" parent="1" source="MNydZ9wM69sGLFGE3Unw-1" target="MNydZ9wM69sGLFGE3Unw-3">
          <mxGeometry relative="1" as="geometry">
            <Array as="points">
              <mxPoint x="420" y="160" />
              <mxPoint x="630" y="160" />
            </Array>
          </mxGeometry>
        </mxCell>
        <mxCell id="MNydZ9wM69sGLFGE3Unw-16" style="edgeStyle=orthogonalEdgeStyle;rounded=0;orthogonalLoop=1;jettySize=auto;html=1;entryX=0.5;entryY=0;entryDx=0;entryDy=0;" edge="1" parent="1" source="MNydZ9wM69sGLFGE3Unw-1" target="MNydZ9wM69sGLFGE3Unw-2">
          <mxGeometry relative="1" as="geometry">
            <Array as="points">
              <mxPoint x="420" y="160" />
              <mxPoint x="276" y="160" />
            </Array>
          </mxGeometry>
        </mxCell>
        <mxCell id="MNydZ9wM69sGLFGE3Unw-1" value="开始" style="rounded=1;whiteSpace=wrap;html=1;" vertex="1" parent="1">
          <mxGeometry x="360" y="50" width="120" height="60" as="geometry" />
        </mxCell>
        <mxCell id="MNydZ9wM69sGLFGE3Unw-7" style="edgeStyle=orthogonalEdgeStyle;rounded=0;orthogonalLoop=1;jettySize=auto;html=1;entryX=0.5;entryY=0;entryDx=0;entryDy=0;" edge="1" parent="1" source="MNydZ9wM69sGLFGE3Unw-2" target="MNydZ9wM69sGLFGE3Unw-6">
          <mxGeometry relative="1" as="geometry" />
        </mxCell>
        <mxCell id="MNydZ9wM69sGLFGE3Unw-2" value="订单支付流程" style="rounded=1;whiteSpace=wrap;html=1;" vertex="1" parent="1">
          <mxGeometry x="216" y="194" width="120" height="60" as="geometry" />
        </mxCell>
        <mxCell id="MNydZ9wM69sGLFGE3Unw-3" value="纸质发票开具流程" style="rounded=1;whiteSpace=wrap;html=1;" vertex="1" parent="1">
          <mxGeometry x="590" y="194" width="120" height="60" as="geometry" />
        </mxCell>
        <mxCell id="MNydZ9wM69sGLFGE3Unw-20" style="edgeStyle=orthogonalEdgeStyle;rounded=0;orthogonalLoop=1;jettySize=auto;html=1;entryX=0.5;entryY=0;entryDx=0;entryDy=0;" edge="1" parent="1" source="MNydZ9wM69sGLFGE3Unw-4" target="MNydZ9wM69sGLFGE3Unw-18">
          <mxGeometry relative="1" as="geometry" />
        </mxCell>
        <mxCell id="MNydZ9wM69sGLFGE3Unw-4" value="现金支付" style="rounded=1;whiteSpace=wrap;html=1;" vertex="1" parent="1">
          <mxGeometry x="216" y="414" width="120" height="60" as="geometry" />
        </mxCell>
        <mxCell id="MNydZ9wM69sGLFGE3Unw-10" style="edgeStyle=orthogonalEdgeStyle;rounded=0;orthogonalLoop=1;jettySize=auto;html=1;entryX=1;entryY=0.5;entryDx=0;entryDy=0;" edge="1" parent="1" source="MNydZ9wM69sGLFGE3Unw-6" target="MNydZ9wM69sGLFGE3Unw-9">
          <mxGeometry relative="1" as="geometry" />
        </mxCell>
        <mxCell id="MNydZ9wM69sGLFGE3Unw-12" style="edgeStyle=orthogonalEdgeStyle;rounded=0;orthogonalLoop=1;jettySize=auto;html=1;entryX=0;entryY=0.5;entryDx=0;entryDy=0;" edge="1" parent="1" source="MNydZ9wM69sGLFGE3Unw-6" target="MNydZ9wM69sGLFGE3Unw-8">
          <mxGeometry relative="1" as="geometry" />
        </mxCell>
        <mxCell id="MNydZ9wM69sGLFGE3Unw-13" style="edgeStyle=orthogonalEdgeStyle;rounded=0;orthogonalLoop=1;jettySize=auto;html=1;entryX=0.5;entryY=0;entryDx=0;entryDy=0;" edge="1" parent="1" source="MNydZ9wM69sGLFGE3Unw-6" target="MNydZ9wM69sGLFGE3Unw-4">
          <mxGeometry relative="1" as="geometry" />
        </mxCell>
        <mxCell id="MNydZ9wM69sGLFGE3Unw-6" value="支付方式" style="rhombus;whiteSpace=wrap;html=1;" vertex="1" parent="1">
          <mxGeometry x="236" y="294" width="80" height="80" as="geometry" />
        </mxCell>
        <mxCell id="MNydZ9wM69sGLFGE3Unw-23" style="edgeStyle=orthogonalEdgeStyle;rounded=0;orthogonalLoop=1;jettySize=auto;html=1;entryX=1;entryY=0.5;entryDx=0;entryDy=0;" edge="1" parent="1" source="MNydZ9wM69sGLFGE3Unw-8" target="MNydZ9wM69sGLFGE3Unw-18">
          <mxGeometry relative="1" as="geometry">
            <mxPoint x="340" y="660" as="targetPoint" />
            <Array as="points">
              <mxPoint x="420" y="560" />
              <mxPoint x="336" y="560" />
            </Array>
          </mxGeometry>
        </mxCell>
        <mxCell id="MNydZ9wM69sGLFGE3Unw-8" value="POS支付" style="rounded=1;whiteSpace=wrap;html=1;" vertex="1" parent="1">
          <mxGeometry x="356" y="304" width="120" height="60" as="geometry" />
        </mxCell>
        <mxCell id="MNydZ9wM69sGLFGE3Unw-27" style="edgeStyle=orthogonalEdgeStyle;rounded=0;orthogonalLoop=1;jettySize=auto;html=1;entryX=0;entryY=0.5;entryDx=0;entryDy=0;" edge="1" parent="1" source="MNydZ9wM69sGLFGE3Unw-9" target="MNydZ9wM69sGLFGE3Unw-18">
          <mxGeometry relative="1" as="geometry">
            <Array as="points">
              <mxPoint x="130" y="555" />
            </Array>
          </mxGeometry>
        </mxCell>
        <mxCell id="MNydZ9wM69sGLFGE3Unw-9" value="线上支付" style="rounded=1;whiteSpace=wrap;html=1;" vertex="1" parent="1">
          <mxGeometry x="76" y="304" width="120" height="60" as="geometry" />
        </mxCell>
        <mxCell id="MNydZ9wM69sGLFGE3Unw-21" style="edgeStyle=orthogonalEdgeStyle;rounded=0;orthogonalLoop=1;jettySize=auto;html=1;" edge="1" parent="1" source="MNydZ9wM69sGLFGE3Unw-18" target="MNydZ9wM69sGLFGE3Unw-19">
          <mxGeometry relative="1" as="geometry" />
        </mxCell>
        <mxCell id="MNydZ9wM69sGLFGE3Unw-18" value="锁定库存" style="rounded=1;whiteSpace=wrap;html=1;" vertex="1" parent="1">
          <mxGeometry x="216" y="525" width="120" height="60" as="geometry" />
        </mxCell>
        <mxCell id="MNydZ9wM69sGLFGE3Unw-19" value="更改订单状态" style="rounded=1;whiteSpace=wrap;html=1;" vertex="1" parent="1">
          <mxGeometry x="216" y="630" width="120" height="60" as="geometry" />
        </mxCell>
      </root>
    </mxGraphModel>
  </diagram>
</mxfile>
